HIERARCHY
ROOT Hips
{
	OFFSET 0.000000 0.000000 0.000000 
	CHANNELS 6 Xposition Yposition Zposition Zrotation Yrotation Xrotation
	JOINT LeftUpLeg
	{
		OFFSET 1.363060 -1.794630 0.839290 
		CHANNELS 3 Zrotation Yrotation Xrotation
		JOINT LeftLeg
		{
			OFFSET 2.448110 -6.726130 0.000000 
			CHANNELS 3 Zrotation Yrotation Xrotation
			JOINT LeftFoot
			{
				OFFSET 2.562200 -7.039590 0.000000 
				CHANNELS 3 Zrotation Yrotation Xrotation
				JOINT LeftToeBase
				{
					OFFSET 0.157640 -0.433110 2.322550 
					CHANNELS 3 Zrotation Yrotation Xrotation
					End Site
					{
						OFFSET 0.000000 0.000000 0.000000 
					}
				}
			}
		}
	}
	JOINT RightUpLeg
	{
		OFFSET -1.305520 -1.794630 0.839290 
		CHANNELS 3 Zrotation Yrotation Xrotation
		JOINT RightLeg
		{
			OFFSET -2.542530 -6.985550 0.000000 
			CHANNELS 3 Zrotation Yrotation Xrotation
			JOINT RightFoot
			{
				OFFSET -2.568260 -7.056230 0.000000 
				CHANNELS 3 Zrotation Yrotation Xrotation
				JOINT RightToeBase
				{
					OFFSET -0.164730 -0.452590 2.363150 
					CHANNELS 3 Zrotation Yrotation Xrotation
					End Site
					{
						OFFSET 0.000000 0.000000 0.000000 
					}
				}
			}
		}
	}
	JOINT Spine
	{
		OFFSET 0.028270 2.035590 -0.193380 
		CHANNELS 3 Zrotation Yrotation Xrotation
		JOINT Spine1
		{
			OFFSET 0.056720 2.048850 -0.042750 
			CHANNELS 3 Zrotation Yrotation Xrotation
			JOINT Neck1
			{
				OFFSET -0.054170 1.746240 0.172020 
				CHANNELS 3 Zrotation Yrotation Xrotation
				JOINT Head
				{
					OFFSET 0.104070 1.761360 -0.123970 
					CHANNELS 3 Zrotation Yrotation Xrotation
					End Site
					{
						OFFSET 0.000000 0.000000 0.000000 
					}
				}
			}
			JOINT LeftArm
			{
				OFFSET 3.362410 1.200890 -0.311210 
				CHANNELS 3 Zrotation Yrotation Xrotation
				JOINT LeftForeArm
				{
					OFFSET 4.983000 -0.000000 -0.000000 
					CHANNELS 3 Zrotation Yrotation Xrotation
					JOINT LeftHand
					{
						OFFSET 3.483560 -0.000000 -0.000000 
						CHANNELS 3 Zrotation Yrotation Xrotation
						JOINT LeftHandIndex1
						{
							OFFSET 0.715260 -0.000000 -0.000000 
							CHANNELS 3 Zrotation Yrotation Xrotation
							End Site
							{
								OFFSET 0.000000 0.000000 0.000000 
							}
						}
					}
				}
			}
			JOINT RightArm
			{
				OFFSET -3.136600 1.374050 -0.404650 
				CHANNELS 3 Zrotation Yrotation Xrotation
				JOINT RightForeArm
				{
					OFFSET -5.241900 -0.000000 -0.000000 
					CHANNELS 3 Zrotation Yrotation Xrotation
					JOINT RightHand
					{
						OFFSET -3.444170 -0.000000 -0.000000 
						CHANNELS 3 Zrotation Yrotation Xrotation
						JOINT RightHandIndex1
						{
							OFFSET -0.622530 -0.000000 -0.000000 
							CHANNELS 3 Zrotation Yrotation Xrotation
							End Site
							{
								OFFSET 0.000000 0.000000 0.000000 
							}
						}
					}
				}
			}
		}
	}
}
MOTION
Frames: 12
Frame Time: 0.041667
-14.922441 17.541544 -0.494285 -174.187340 85.330163 -171.358085 -13.526717 4.896640 -12.025844 1.260223 9.928512 26.199162 1.129915 -16.833165 -4.295029 1.125200 6.737900 18.941100 16.641414 -4.248034 -13.706768 -3.068313 -12.823224 35.457159 -0.524657 -2.246660 -16.180877 -0.602100 -4.967200 13.814900 2.102949 -0.673611 -2.838530 6.470533 -0.389610 1.095454 3.418776 -1.883320 23.980296 3.090500 -1.521300 15.589800 -88.100983 3.551105 15.578915 9.977110 -19.365652 -1.908989 0.185016 0.453658 3.491780 -7.125000 0.000000 0.000000 78.350969 3.053298 19.385743 -15.141662 23.868388 -3.634123 0.481247 -0.136309 -12.737397 7.125000 0.000000 0.000000 
-14.917174 17.545291 -0.480510 -171.913584 85.312182 -169.013913 -13.266200 5.018803 -12.118837 1.270258 9.919463 26.206490 1.119827 -17.016273 -4.070917 1.269900 7.142500 20.138300 16.894013 -4.242024 -13.776619 -3.061412 -12.824621 35.439386 -0.536281 -2.197146 -16.207366 -0.610600 -5.001200 13.912000 2.191967 -0.861091 -2.846870 6.698813 -0.490326 1.142116 3.418456 -1.574906 24.016383 3.099800 -1.393000 15.600800 -88.149147 3.732543 14.729520 9.918578 -19.294792 -1.896268 0.183101 0.454228 3.795388 -7.125000 0.000000 0.000000 78.167118 3.170296 19.936954 -15.300596 24.070899 -3.699501 0.465521 -0.127960 -12.350066 7.125000 0.000000 0.000000 
-14.912211 17.543569 -0.463291 -172.761382 85.482464 -169.727107 -13.314380 4.781656 -12.104882 1.257247 9.918847 26.183491 1.163149 -16.664992 -4.603009 1.124500 6.735700 18.934600 16.846446 -4.350072 -13.993633 -3.081404 -12.838828 35.512225 -0.562145 -2.054746 -16.179739 -0.566100 -4.818800 13.392500 2.200859 -0.907334 -2.850786 6.848085 -0.519389 1.241682 3.562759 -1.384757 24.076667 3.270400 -1.355600 15.669100 -88.204981 3.972886 14.370077 9.946348 -19.343293 -1.907257 0.182337 0.457648 4.043391 -7.125000 0.000000 0.000000 78.078979 3.242165 20.393119 -15.519990 24.360811 -3.794450 0.457576 -0.118201 -12.401601 7.125000 0.000000 0.000000 
-14.908565 17.539113 -0.454377 -175.411722 85.716885 -172.309684 -13.551850 4.411608 -12.017065 1.250539 9.954450 26.249957 1.196875 -16.145837 -5.131880 1.069800 6.575200 18.462800 16.605501 -4.451051 -14.063255 -3.087392 -12.827361 35.505856 -0.602825 -1.818970 -16.109001 -0.577700 -4.867300 13.530400 2.101371 -0.766344 -2.826099 6.592388 -0.447679 1.358046 3.574141 -1.340829 24.115977 3.287000 -1.337000 15.721700 -87.819685 4.263843 15.331080 10.080775 -19.533460 -1.943216 0.174592 0.459627 3.020339 -7.125000 0.000000 0.000000 78.264916 3.326348 20.673655 -15.736731 24.644549 -3.889512 0.462103 -0.108546 -12.768546 7.125000 0.000000 0.000000 
-14.906438 17.534352 -0.448199 -173.943432 85.720947 -170.936697 -13.409628 4.433447 -11.955512 1.269496 9.980497 26.344363 1.196028 -16.141252 -5.099693 1.040800 6.488200 18.207800 16.730688 -4.395763 -13.887312 -3.081556 -12.832730 35.486624 -0.667306 -1.536076 -16.226767 -0.709500 -5.383300 15.005200 2.038621 -0.638007 -2.790776 6.205274 -0.379686 1.363823 3.365503 -1.401586 24.010052 3.060000 -1.307900 15.621200 -87.373329 4.445072 16.463816 10.145545 -19.619324 -1.957078 0.165188 0.461081 1.929083 -7.125000 0.000000 0.000000 78.524850 3.410806 20.800226 -15.908740 24.861735 -3.965046 0.463919 -0.107020 -13.214677 7.125000 0.000000 0.000000 
-14.902690 17.532326 -0.436450 -169.013684 85.630851 -166.056977 -12.959956 4.569845 -11.982098 1.302694 10.000426 26.463043 1.216575 -16.200555 -5.204873 0.844600 5.861800 16.384000 17.159617 -4.458266 -13.867319 -3.067545 -12.842619 35.447983 -0.719641 -1.277238 -16.267042 -0.777900 -5.631300 15.718300 1.986296 -0.474602 -2.781857 5.721102 -0.292733 1.299534 3.207877 -1.668376 23.829830 2.835900 -1.348300 15.450900 -87.120363 4.507349 16.191489 10.074779 -19.493676 -1.933656 0.170516 0.453936 2.229415 -7.125000 0.000000 0.000000 78.851883 3.309859 20.825230 -16.124143 25.144274 -4.063521 0.458492 -0.108447 -13.473153 7.125000 0.000000 0.000000 
-14.896410 17.531010 -0.424295 -166.494752 85.691500 -163.466711 -12.747194 4.236447 -11.908341 1.313952 10.023218 26.555851 1.247782 -15.873223 -5.555279 0.867700 5.939400 16.608800 17.365115 -4.691207 -14.078678 -3.061653 -12.842879 35.425140 -0.715829 -1.224715 -16.105470 -0.640000 -5.118100 14.245600 1.949081 -0.357646 -2.790538 5.492156 -0.233907 1.300491 3.338858 -1.752586 23.849130 2.933100 -1.383300 15.477800 -87.178958 4.558886 14.904220 10.018172 -19.382258 -1.915765 0.175775 0.444506 3.283313 -7.125000 0.000000 0.000000 78.993352 3.199356 21.072332 -16.325530 25.411658 -4.156441 0.462657 -0.105389 -13.302168 7.125000 0.000000 0.000000 
-14.887396 17.525337 -0.411938 -168.302618 85.923866 -165.239110 -12.915242 3.877722 -11.770432 1.311517 10.056069 26.627634 1.252951 -15.512725 -5.752052 1.124300 6.735300 18.933600 17.200338 -4.778486 -14.127955 -3.066019 -12.833635 35.417679 -0.737953 -1.047836 -15.957750 -0.578900 -4.872000 13.543900 1.905521 -0.288806 -2.783935 5.522960 -0.203547 1.365034 3.691134 -1.678851 23.990510 3.292100 -1.418400 15.642900 -87.221944 4.659488 14.055009 10.015903 -19.351960 -1.910524 0.169065 0.437055 4.218353 -7.125000 0.000000 0.000000 79.059487 3.170281 21.332399 -16.482276 25.621022 -4.229834 0.464891 -0.103531 -13.090959 7.125000 0.000000 0.000000 
-14.878989 17.520982 -0.396441 -172.712639 86.235088 -169.703189 -13.251579 3.817776 -11.695350 1.314568 10.106526 26.726875 1.240594 -15.238243 -5.790906 1.217000 6.997600 19.708300 16.861480 -4.746166 -13.974196 -3.067204 -12.809379 35.381232 -0.782124 -0.793122 -15.892378 -0.638000 -5.110400 14.223800 1.831404 -0.171115 -2.768913 5.553198 -0.144577 1.376378 3.942379 -1.700947 24.047965 3.536600 -1.469700 15.730200 -87.130713 4.924773 14.021372 10.116523 -19.483267 -1.936340 0.159127 0.434302 4.520837 -7.125000 0.000000 0.000000 79.224930 3.104548 21.293008 -16.693258 25.896562 -4.329631 0.449209 -0.104093 -13.011860 7.125000 0.000000 0.000000 
-14.872810 17.518450 -0.374866 -170.426283 86.370016 -167.516246 -13.078745 3.848805 -11.641306 1.341119 10.149546 26.878490 1.243447 -15.037791 -5.835802 1.019200 6.422800 18.016200 17.067302 -4.479280 -13.722639 -3.036476 -12.791536 35.275769 -0.765877 -0.912896 -15.981234 -0.659000 -5.192100 14.457200 1.833467 -0.103390 -2.766461 5.549036 -0.113613 1.300348 3.990076 -1.700850 24.045583 3.584300 -1.479100 15.731600 -87.060381 5.310715 14.662378 10.266020 -19.704833 -1.981097 0.160570 0.435608 3.717087 -7.125000 0.000000 0.000000 79.342712 3.038550 21.316469 -16.922284 26.187382 -4.437667 0.426921 -0.104787 -13.061302 7.125000 0.000000 0.000000 
-14.865315 17.518956 -0.349747 -161.818869 86.204783 -158.983254 -12.454864 3.868585 -11.632653 1.388918 10.185963 27.076641 1.275888 -14.920693 -6.078536 0.785800 5.659200 15.798700 17.767147 -4.100958 -13.469111 -2.982222 -12.776847 35.110704 -0.731489 -1.147957 -16.132672 -0.662600 -5.205900 14.496700 1.830009 0.081913 -2.785159 5.300676 -0.023249 1.163662 4.314068 -1.914643 24.075323 3.848600 -1.587900 15.783600 -86.799975 5.627380 15.728818 10.332908 -19.782234 -1.995457 0.166248 0.431462 2.861748 -7.125000 0.000000 0.000000 79.594556 2.854932 21.076925 -17.125188 26.455748 -4.537729 0.404541 -0.102466 -13.295067 7.125000 0.000000 0.000000 
-14.856705 17.523514 -0.328780 -160.053522 86.165019 -157.250406 -12.275228 3.728074 -11.638839 1.431807 10.258538 27.318663 1.300633 -14.813804 -6.385953 0.716400 5.409000 15.079000 17.953603 -4.221680 -13.382154 -2.943642 -12.733868 34.933406 -0.760526 -0.974292 -16.087075 -0.663900 -5.211100 14.511600 1.783128 0.247929 -2.786035 4.999824 0.068580 1.059529 3.977242 -2.116401 23.765077 3.447400 -1.571200 15.403000 -86.606377 5.823602 16.105129 10.362155 -19.825513 -2.000557 0.154497 0.430782 2.711844 -7.125000 0.000000 0.000000 79.846542 2.694924 21.015073 -17.319532 26.699234 -4.629397 0.391564 -0.089564 -13.624214 7.125000 0.000000 0.000000 
